<svg width="228" height="96" viewBox="0 0 228 96" fill="none" xmlns="http://www.w3.org/2000/svg">
<path fill-rule="evenodd" clip-rule="evenodd" d="M162.226 13.1034H205.823V83.1724H162.226V13.1034Z" fill="#E63E11"/>
<path fill-rule="evenodd" clip-rule="evenodd" d="M35.2638 13.1034H78.8607V83.1724H35.2638V13.1034Z" fill="#038141"/>
<path fill-rule="evenodd" clip-rule="evenodd" d="M26.3931 13.1034H37.2791C46.34 13.1034 53.6345 20.3625 53.6345 29.3793V66.8965C53.6345 75.9134 46.34 83.1724 37.2791 83.1724H26.3931C17.3322 83.1724 10.0377 75.9134 10.0377 66.8965V29.3793C10.0377 20.3625 17.3322 13.1034 26.3931 13.1034Z" fill="#038141"/>
<path d="M26.1131 31.7719H32.767L44.4113 63.5372H36.8583L34.3855 56.4236H24.4497L22.0219 63.5372H14.4689L26.1131 31.7719ZM33.1717 51.368L29.4401 40.1383L25.6186 51.368H33.1717Z" fill="white" fill-opacity="0.446064"/>
<path fill-rule="evenodd" clip-rule="evenodd" d="M200.759 13.1034H211.645C220.705 13.1034 228 20.3625 228 29.3793V66.8965C228 75.9134 220.705 83.1724 211.645 83.1724H200.759C191.698 83.1724 184.403 75.9134 184.403 66.8965V29.3793C184.403 20.3625 191.698 13.1034 200.759 13.1034Z" fill="#E63E11"/>
<path d="M215.068 57.0947V63.5372H192.633V31.7719H214.663V38.2144H200.006V44.3885H212.595V50.339H200.006V57.0947H215.068Z" fill="white" fill-opacity="0.446064"/>
<path fill-rule="evenodd" clip-rule="evenodd" d="M55.1069 13.1034H98.7037V83.1724H55.1069V13.1034Z" fill="#EE8100"/>
<path fill-rule="evenodd" clip-rule="evenodd" d="M140.881 13.1034H184.478V83.1724H140.881V13.1034Z" fill="#EE8100"/>
<path d="M148.765 63.5372V31.7719H160.679C163.316 31.7719 165.624 32.1895 167.602 33.0246C169.581 33.8598 171.229 34.9932 172.548 36.4248C173.897 37.8565 174.901 39.5417 175.56 41.4805C176.249 43.3894 176.594 45.4325 176.594 47.6098C176.594 50.0258 176.22 52.218 175.47 54.1866C174.721 56.1253 173.642 57.7956 172.233 59.1975C170.854 60.5695 169.176 61.6432 167.198 62.4187C165.25 63.1644 163.077 63.5372 160.679 63.5372H148.765ZM169.086 47.6098C169.086 46.208 168.891 44.9403 168.502 43.8069C168.142 42.6437 167.602 41.6445 166.883 40.8093C166.164 39.9742 165.28 39.3329 164.231 38.8855C163.181 38.4381 161.998 38.2144 160.679 38.2144H156.138V57.0947H160.679C162.028 57.0947 163.226 56.8561 164.275 56.3788C165.325 55.9016 166.194 55.2454 166.883 54.4103C167.602 53.5453 168.142 52.5461 168.502 51.4127C168.891 50.2495 169.086 48.9818 169.086 47.6098Z" fill="white" fill-opacity="0.446064"/>
<path fill-rule="evenodd" clip-rule="evenodd" d="M94.9222 13.1034H140.956V83.1724H94.9222V13.1034Z" fill="#FECB02"/>
<path fill-rule="evenodd" clip-rule="evenodd" d="M97.1566 13.1034H53.5598V83.1724H97.1566V13.1034Z" fill="#85BB2F"/>
<path d="M103.395 47.1177C103.395 45.2088 103.755 43.3148 104.474 41.4357C105.193 39.5268 106.242 37.8267 107.621 36.3354C109 34.844 110.678 33.6361 112.656 32.7114C114.635 31.7868 116.882 31.3245 119.4 31.3245C122.397 31.3245 124.99 31.9658 127.178 33.2483C129.396 34.5309 131.044 36.2011 132.123 38.2592L126.459 42.1963C126.099 41.3611 125.634 40.6751 125.065 40.1383C124.525 39.5716 123.926 39.1242 123.267 38.7961C122.607 38.4381 121.933 38.1995 121.243 38.0802C120.554 37.9311 119.88 37.8565 119.22 37.8565C117.812 37.8565 116.583 38.1399 115.534 38.7066C114.485 39.2733 113.615 40.004 112.926 40.8988C112.237 41.7936 111.727 42.8077 111.398 43.9412C111.068 45.0746 110.903 46.2229 110.903 47.3861C110.903 48.6388 111.098 49.8468 111.487 51.0101C111.877 52.1733 112.432 53.2023 113.151 54.0971C113.9 54.9919 114.784 55.7078 115.803 56.2446C116.853 56.7517 118.021 57.0052 119.31 57.0052C119.97 57.0052 120.644 56.9306 121.333 56.7815C122.053 56.6026 122.727 56.349 123.357 56.0209C124.016 55.663 124.615 55.2156 125.155 54.6787C125.694 54.112 126.129 53.426 126.459 52.6207L132.483 56.1551C132.004 57.3184 131.284 58.3623 130.325 59.2869C129.396 60.2116 128.317 60.9871 127.088 61.6134C125.859 62.2398 124.555 62.717 123.177 63.0451C121.798 63.3732 120.449 63.5372 119.13 63.5372C116.823 63.5372 114.695 63.0749 112.746 62.1503C110.828 61.1958 109.165 59.9431 107.756 58.3921C106.377 56.8412 105.298 55.0814 104.519 53.1128C103.77 51.1443 103.395 49.1459 103.395 47.1177Z" fill="white" fill-opacity="0.446064"/>
<path d="M90.8743 55.3946C90.8743 56.7666 90.5896 57.9597 90.0201 58.9738C89.4506 59.9879 88.6713 60.8379 87.6822 61.5239C86.6931 62.1801 85.5392 62.6872 84.2204 63.0451C82.9016 63.3732 81.5079 63.5372 80.0393 63.5372H64.4836V31.7719H82.2422C83.3512 31.7719 84.3553 32.0105 85.2545 32.4877C86.1536 32.965 86.9179 33.5913 87.5474 34.3668C88.1768 35.1125 88.6563 35.9774 88.986 36.9617C89.3457 37.9162 89.5255 38.9004 89.5255 39.9146C89.5255 41.4357 89.1359 42.8674 88.3566 44.2096C87.6073 45.5518 86.4684 46.5659 84.9398 47.2519C86.7681 47.7888 88.2068 48.7432 89.2558 50.1153C90.3348 51.4873 90.8743 53.247 90.8743 55.3946ZM83.3662 53.9182C83.3662 52.9339 83.0815 52.0987 82.512 51.4127C81.9425 50.7267 81.2232 50.3837 80.354 50.3837H71.8568V57.3184H80.0393C80.9984 57.3184 81.7927 57.0052 82.4221 56.3788C83.0515 55.7525 83.3662 54.9323 83.3662 53.9182ZM71.8568 38.0355V44.6122H79.0951C79.9044 44.6122 80.6237 44.3438 81.2532 43.8069C81.8826 43.27 82.1973 42.4349 82.1973 41.3015C82.1973 40.2576 81.9125 39.4522 81.3431 38.8855C80.8036 38.3188 80.1442 38.0355 79.3649 38.0355H71.8568Z" fill="white" fill-opacity="0.446064"/>
<path fill-rule="evenodd" clip-rule="evenodd" d="M27.5629 4H32.2857C45.3395 4 55.8486 14.4579 55.8486 27.4483V68.5517C55.8486 81.5421 45.3395 92 32.2857 92H27.5629C14.5091 92 4 81.5421 4 68.5517V27.4483C4 14.4579 14.5091 4 27.5629 4Z" fill="#0039FF" fill-opacity="0.629738" stroke="white" stroke-width="7.53935" stroke-linecap="round" stroke-linejoin="round"/>
<path fill-rule="evenodd" clip-rule="evenodd" d="M27.5629 4H32.2857C45.3395 4 55.8486 14.4579 55.8486 27.4483V68.5517C55.8486 81.5421 45.3395 92 32.2857 92H27.5629C14.5091 92 4 81.5421 4 68.5517V27.4483C4 14.4579 14.5091 4 27.5629 4Z" fill="#038141"/>
<path d="M25.9008 27.9179H33.9478L48.0301 69.7979H38.8956L35.9052 60.4191H23.889L20.9529 69.7979H11.8185L25.9008 27.9179ZM34.4371 53.7537L29.9243 38.9483L25.3027 53.7537H34.4371Z" fill="white"/>
</svg>
