<svg width="225" height="99" viewBox="0 0 225 99" fill="none" xmlns="http://www.w3.org/2000/svg">
<path fill-rule="evenodd" clip-rule="evenodd" d="M25.9487 13.41H70.7944V85.8384H25.9487V13.41Z" fill="#038141"/>
<path fill-rule="evenodd" clip-rule="evenodd" d="M156.548 13.41H201.394V85.8384H156.548V13.41Z" fill="#E63E11"/>
<path fill-rule="evenodd" clip-rule="evenodd" d="M16.8239 13.41H28.0218C37.3422 13.41 44.8457 20.9134 44.8457 30.2339V69.0145C44.8457 78.3349 37.3422 85.8384 28.0218 85.8384H16.8239C7.50347 85.8384 0 78.3349 0 69.0145V30.2339C0 20.9134 7.50347 13.41 16.8239 13.41Z" fill="#038141"/>
<path fill-rule="evenodd" clip-rule="evenodd" d="M134.591 13.41H179.437V85.8384H134.591V13.41Z" fill="#EE8100"/>
<path d="M142.701 65.542V32.707H154.956C157.669 32.707 160.043 33.1387 162.078 34.002C164.113 34.8652 165.809 36.0368 167.165 37.5167C168.553 38.9966 169.585 40.7385 170.264 42.7425C170.973 44.7157 171.327 46.8276 171.327 49.0783C171.327 51.5756 170.942 53.8417 170.171 55.8765C169.4 57.8805 168.291 59.6071 166.842 61.0561C165.423 62.4743 163.697 63.5843 161.662 64.3859C159.658 65.1566 157.423 65.542 154.956 65.542H142.701ZM163.604 49.0783C163.604 47.6292 163.404 46.3189 163.003 45.1473C162.633 43.9449 162.078 42.9121 161.338 42.0488C160.598 41.1856 159.689 40.5227 158.61 40.0602C157.531 39.5978 156.313 39.3665 154.956 39.3665H150.285V58.8825H154.956C156.344 58.8825 157.577 58.6359 158.656 58.1426C159.735 57.6493 160.629 56.971 161.338 56.1078C162.078 55.2136 162.633 54.1808 163.003 53.0092C163.404 51.8068 163.604 50.4965 163.604 49.0783Z" fill="white" fill-opacity="0.446064"/>
<path fill-rule="evenodd" clip-rule="evenodd" d="M87.3161 13.41H134.668V85.8384H87.3161V13.41Z" fill="#FECB02"/>
<path fill-rule="evenodd" clip-rule="evenodd" d="M89.6145 13.41H44.7688V85.8384H89.6145V13.41Z" fill="#85BB2F"/>
<path d="M100.285 48.5696C100.285 46.5964 100.655 44.6386 101.395 42.6963C102.135 40.7231 103.214 38.9657 104.632 37.4242C106.051 35.8826 107.777 34.634 109.812 33.6782C111.847 32.7225 114.159 32.2446 116.749 32.2446C119.832 32.2446 122.499 32.9075 124.75 34.2332C127.031 35.5589 128.727 37.2855 129.837 39.4128L124.01 43.4825C123.64 42.6192 123.162 41.9101 122.576 41.3551C122.021 40.7694 121.404 40.3069 120.726 39.9677C120.048 39.5978 119.354 39.3511 118.645 39.2278C117.936 39.0737 117.242 38.9966 116.564 38.9966C115.115 38.9966 113.851 39.2895 112.772 39.8753C111.693 40.4611 110.799 41.2164 110.089 42.1413C109.38 43.0663 108.856 44.1145 108.517 45.2861C108.178 46.4577 108.008 47.6447 108.008 48.8471C108.008 50.142 108.209 51.3906 108.61 52.593C109.01 53.7954 109.581 54.8591 110.321 55.784C111.091 56.709 112.001 57.4489 113.049 58.0039C114.128 58.528 115.331 58.7901 116.656 58.7901C117.335 58.7901 118.028 58.713 118.738 58.5588C119.477 58.3738 120.171 58.1118 120.819 57.7726C121.497 57.4027 122.114 56.9402 122.668 56.3852C123.223 55.7994 123.67 55.0903 124.01 54.2579L130.207 57.9114C129.713 59.1138 128.973 60.1929 127.987 61.1486C127.031 62.1044 125.921 62.906 124.657 63.5534C123.393 64.2009 122.052 64.6942 120.634 65.0333C119.215 65.3725 117.828 65.542 116.471 65.542C114.097 65.542 111.908 65.0642 109.904 64.1084C107.931 63.1218 106.22 61.8269 104.771 60.2237C103.353 58.6205 102.243 56.8015 101.441 54.7666C100.671 52.7318 100.285 50.6661 100.285 48.5696Z" fill="white" fill-opacity="0.446064"/>
<path d="M83.1522 58.2658C83.1522 59.684 82.8593 60.9172 82.2735 61.9655C81.6877 63.0137 80.8861 63.8924 79.8687 64.6015C78.8513 65.2798 77.6643 65.8039 76.3077 66.1739C74.9511 66.5131 73.5175 66.6826 72.0068 66.6826H56.0055V33.8476H74.2729C75.4136 33.8476 76.4464 34.0943 77.3714 34.5876C78.2963 35.0809 79.0825 35.7283 79.7299 36.5299C80.3774 37.3007 80.8707 38.1948 81.2098 39.2122C81.5798 40.1988 81.7648 41.2162 81.7648 42.2645C81.7648 43.8369 81.364 45.3168 80.5624 46.7041C79.7916 48.0915 78.62 49.1398 77.0476 49.8489C78.9283 50.4039 80.4082 51.3905 81.4873 52.8087C82.5972 54.2269 83.1522 56.0459 83.1522 58.2658ZM75.429 56.7396C75.429 55.7222 75.1361 54.8589 74.5503 54.1498C73.9645 53.4407 73.2246 53.0862 72.3305 53.0862H63.5899V60.2544H72.0068C72.9934 60.2544 73.8104 59.9306 74.4578 59.2832C75.1053 58.6357 75.429 57.7879 75.429 56.7396ZM63.5899 40.3221V47.1204H71.0356C71.868 47.1204 72.608 46.8429 73.2554 46.2879C73.9029 45.733 74.2266 44.8697 74.2266 43.6981C74.2266 42.6191 73.9337 41.7866 73.3479 41.2008C72.793 40.615 72.1147 40.3221 71.3131 40.3221H63.5899Z" fill="white" fill-opacity="0.446064"/>
<path fill-rule="evenodd" clip-rule="evenodd" d="M65.0145 4H69.8725C83.3003 4 94.1104 14.8101 94.1104 28.2378V70.7254C94.1104 84.1531 83.3003 94.9632 69.8725 94.9632H65.0145C51.5867 94.9632 40.7766 84.1531 40.7766 70.7254V28.2378C40.7766 14.8101 51.5867 4 65.0145 4Z" fill="#0039FF" fill-opacity="0.629738" stroke="white" stroke-width="7.53935" stroke-linecap="round" stroke-linejoin="round"/>
<path d="M16.536 32.707H23.3804L35.3583 65.542H27.5889L25.0453 58.1888H14.8248L12.3275 65.542H4.55814L16.536 32.707ZM23.7967 52.963L19.9582 41.3551L16.0272 52.963H23.7967Z" fill="white" fill-opacity="0.446064"/>
<path fill-rule="evenodd" clip-rule="evenodd" d="M196.184 13.41H207.382C216.702 13.41 224.206 20.9134 224.206 30.2339V69.0145C224.206 78.3349 216.702 85.8384 207.382 85.8384H196.184C186.864 85.8384 179.36 78.3349 179.36 69.0145V30.2339C179.36 20.9134 186.864 13.41 196.184 13.41Z" fill="#E63E11"/>
<path d="M210.903 58.8825V65.542H187.826V32.707H210.487V39.3665H195.41V45.7485H208.359V51.8993H195.41V58.8825H210.903Z" fill="white" fill-opacity="0.446064"/>
<path fill-rule="evenodd" clip-rule="evenodd" d="M65.0145 4H69.8725C83.3003 4 94.1104 14.8101 94.1104 28.2378V70.7254C94.1104 84.1531 83.3003 94.9632 69.8725 94.9632H65.0145C51.5867 94.9632 40.7766 84.1531 40.7766 70.7254V28.2378C40.7766 14.8101 51.5867 4 65.0145 4Z" fill="#85BB2F"/>
<path d="M85.4853 60.9166C85.4853 62.7864 85.1311 64.4123 84.4227 65.7943C83.7142 67.1763 82.7448 68.3348 81.5144 69.2697C80.2839 70.164 78.8484 70.855 77.2078 71.3428C75.5672 71.7899 73.8334 72.0135 72.0064 72.0135H52.6549V28.7233H74.7469C76.1265 28.7233 77.3756 29.0485 78.4942 29.6989C79.6128 30.3492 80.5636 31.2028 81.3466 32.2597C82.1296 33.2759 82.7262 34.4547 83.1363 35.7961C83.5837 37.0968 83.8075 38.4382 83.8075 39.8202C83.8075 41.8933 83.3227 43.8444 82.3533 45.6735C81.4211 47.5027 80.0043 48.8847 78.1027 49.8196C80.3771 50.5513 82.1669 51.852 83.4719 53.7218C84.8142 55.5917 85.4853 57.9899 85.4853 60.9166ZM76.1452 58.9045C76.1452 57.5631 75.7909 56.4249 75.0825 55.49C74.3741 54.5551 73.4792 54.0877 72.3979 54.0877H61.8273V63.5384H72.0064C73.1996 63.5384 74.1876 63.1116 74.9707 62.2579C75.7537 61.4043 76.1452 60.2865 76.1452 58.9045ZM61.8273 37.2594V46.2223H70.8319C71.8386 46.2223 72.7335 45.8565 73.5165 45.1248C74.2995 44.3931 74.691 43.255 74.691 41.7104C74.691 40.2877 74.3368 39.1902 73.6284 38.4179C72.9572 37.6455 72.1369 37.2594 71.1675 37.2594H61.8273Z" fill="white"/>
</svg>
