<svg width="225" height="99" viewBox="0 0 225 99" fill="none" xmlns="http://www.w3.org/2000/svg">
<path fill-rule="evenodd" clip-rule="evenodd" d="M25.9487 13.41H70.7944V85.8384H25.9487V13.41Z" fill="#038141"/>
<path fill-rule="evenodd" clip-rule="evenodd" d="M156.548 13.41H201.394V85.8384H156.548V13.41Z" fill="#E63E11"/>
<path fill-rule="evenodd" clip-rule="evenodd" d="M16.8239 13.41H28.0218C37.3422 13.41 44.8457 20.9134 44.8457 30.2339V69.0145C44.8457 78.3349 37.3422 85.8384 28.0218 85.8384H16.8239C7.50347 85.8384 0 78.3349 0 69.0145V30.2339C0 20.9134 7.50347 13.41 16.8239 13.41Z" fill="#038141"/>
<path fill-rule="evenodd" clip-rule="evenodd" d="M134.591 13.41H179.437V85.8384H134.591V13.41Z" fill="#EE8100"/>
<path d="M145.537 65.542V32.707H157.792C160.505 32.707 162.879 33.1387 164.914 34.0019C166.949 34.8652 168.645 36.0368 170.001 37.5167C171.389 38.9966 172.421 40.7385 173.1 42.7425C173.809 44.7157 174.163 46.8276 174.163 49.0783C174.163 51.5756 173.778 53.8417 173.007 55.8765C172.236 57.8805 171.126 59.6071 169.677 61.0561C168.259 62.4743 166.533 63.5842 164.498 64.3859C162.494 65.1566 160.259 65.542 157.792 65.542H145.537ZM166.44 49.0783C166.44 47.6292 166.24 46.3189 165.839 45.1473C165.469 43.9449 164.914 42.9121 164.174 42.0488C163.434 41.1856 162.525 40.5227 161.446 40.0602C160.366 39.5978 159.149 39.3665 157.792 39.3665H153.121V58.8825H157.792C159.179 58.8825 160.413 58.6359 161.492 58.1426C162.571 57.6493 163.465 56.971 164.174 56.1077C164.914 55.2136 165.469 54.1808 165.839 53.0092C166.24 51.8068 166.44 50.4965 166.44 49.0783Z" fill="white" fill-opacity="0.446064"/>
<path fill-rule="evenodd" clip-rule="evenodd" d="M87.3161 13.41H134.668V85.8384H87.3161V13.41Z" fill="#FECB02"/>
<path fill-rule="evenodd" clip-rule="evenodd" d="M89.6145 13.41H44.7688V85.8384H89.6145V13.41Z" fill="#85BB2F"/>
<path d="M96.0314 49.9876C96.0314 48.0145 96.4014 46.0567 97.1413 44.1143C97.8813 42.1412 98.9604 40.3838 100.379 38.8422C101.797 37.3007 103.523 36.052 105.558 35.0963C107.593 34.1405 109.905 33.6626 112.495 33.6626C115.578 33.6626 118.245 34.3255 120.496 35.6512C122.777 36.977 124.473 38.7035 125.583 40.8308L119.756 44.9005C119.386 44.0373 118.908 43.3281 118.322 42.7732C117.767 42.1874 117.151 41.7249 116.472 41.3858C115.794 41.0158 115.1 40.7692 114.391 40.6459C113.682 40.4917 112.988 40.4146 112.31 40.4146C110.861 40.4146 109.597 40.7075 108.518 41.2933C107.439 41.8791 106.545 42.6345 105.836 43.5594C105.127 44.4843 104.602 45.5326 104.263 46.7041C103.924 47.8757 103.755 49.0627 103.755 50.2651C103.755 51.56 103.955 52.8087 104.356 54.0111C104.757 55.2135 105.327 56.2772 106.067 57.2021C106.838 58.127 107.747 58.867 108.795 59.4219C109.875 59.946 111.077 60.2081 112.403 60.2081C113.081 60.2081 113.775 60.131 114.484 59.9769C115.224 59.7919 115.917 59.5298 116.565 59.1907C117.243 58.8207 117.86 58.3582 118.415 57.8033C118.97 57.2175 119.417 56.5084 119.756 55.6759L125.953 59.3294C125.46 60.5318 124.72 61.6109 123.733 62.5667C122.777 63.5224 121.667 64.324 120.403 64.9715C119.139 65.6189 117.798 66.1122 116.38 66.4514C114.962 66.7905 113.574 66.9601 112.218 66.9601C109.844 66.9601 107.655 66.4822 105.651 65.5264C103.678 64.5398 101.966 63.245 100.517 61.6417C99.0991 60.0385 97.9892 58.2195 97.1876 56.1847C96.4168 54.1498 96.0314 52.0841 96.0314 49.9876Z" fill="white" fill-opacity="0.446064"/>
<path d="M76.0625 57.1252C76.0625 58.5434 75.7696 59.7766 75.1838 60.8249C74.598 61.8731 73.7964 62.7518 72.779 63.4609C71.7616 64.1392 70.5746 64.6633 69.218 65.0333C67.8615 65.3724 66.4278 65.542 64.9171 65.542H48.9159V32.707H67.1832C68.3239 32.707 69.3568 32.9537 70.2817 33.447C71.2066 33.9403 71.9928 34.5877 72.6403 35.3893C73.2877 36.1601 73.781 37.0542 74.1202 38.0716C74.4901 39.0582 74.6751 40.0756 74.6751 41.1239C74.6751 42.6963 74.2743 44.1762 73.4727 45.5635C72.7019 46.9509 71.5304 47.9992 69.958 48.7083C71.8387 49.2633 73.3186 50.2499 74.3976 51.6681C75.5076 53.0863 76.0625 54.9053 76.0625 57.1252ZM68.3394 55.599C68.3394 54.5816 68.0465 53.7183 67.4607 53.0092C66.8749 52.3001 66.1349 51.9456 65.2408 51.9456H56.5003V59.1138H64.9171C65.9037 59.1138 66.7207 58.79 67.3682 58.1426C68.0156 57.4951 68.3394 56.6473 68.3394 55.599ZM56.5003 39.1815V45.9798H63.9459C64.7784 45.9798 65.5183 45.7023 66.1658 45.1473C66.8132 44.5924 67.1369 43.7291 67.1369 42.5575C67.1369 41.4784 66.8441 40.646 66.2583 40.0602C65.7033 39.4744 65.025 39.1815 64.2234 39.1815H56.5003Z" fill="white" fill-opacity="0.446064"/>
<path fill-rule="evenodd" clip-rule="evenodd" d="M108.563 4H113.421C126.849 4 137.659 14.8101 137.659 28.2379V70.7254C137.659 84.1531 126.849 94.9632 113.421 94.9632H108.563C95.1354 94.9632 84.3253 84.1531 84.3253 70.7254V28.2379C84.3253 14.8101 95.1354 4 108.563 4Z" fill="#0039FF" fill-opacity="0.629738" stroke="white" stroke-width="7.53935" stroke-linecap="round" stroke-linejoin="round"/>
<path d="M16.536 32.707H23.3804L35.3583 65.542H27.5889L25.0453 58.1888H14.8248L12.3275 65.542H4.55814L16.536 32.707ZM23.7967 52.963L19.9582 41.3551L16.0272 52.963H23.7967Z" fill="white" fill-opacity="0.446064"/>
<path fill-rule="evenodd" clip-rule="evenodd" d="M196.184 13.41H207.382C216.702 13.41 224.206 20.9134 224.206 30.2339V69.0145C224.206 78.3349 216.702 85.8384 207.382 85.8384H196.184C186.864 85.8384 179.36 78.3349 179.36 69.0145V30.2339C179.36 20.9134 186.864 13.41 196.184 13.41Z" fill="#E63E11"/>
<path d="M210.903 58.8825V65.542H187.826V32.707H210.487V39.3665H195.41V45.7485H208.359V51.8993H195.41V58.8825H210.903Z" fill="white" fill-opacity="0.446064"/>
<path fill-rule="evenodd" clip-rule="evenodd" d="M108.563 4H113.421C126.849 4 137.659 14.8101 137.659 28.2379V70.7254C137.659 84.1531 126.849 94.9632 113.421 94.9632H108.563C95.1354 94.9632 84.3253 84.1531 84.3253 70.7254V28.2379C84.3253 14.8101 95.1354 4 108.563 4Z" fill="#FECB02"/>
<path d="M92.2839 50.0026C92.2839 47.4011 92.7313 44.82 93.6262 42.2591C94.521 39.6576 95.8261 37.3407 97.5412 35.3083C99.2564 33.2759 101.344 31.6297 103.805 30.3696C106.266 29.1095 109.063 28.4794 112.195 28.4794C115.923 28.4794 119.149 29.3534 121.87 31.1012C124.63 32.8491 126.68 35.1254 128.023 37.9301L120.976 43.2957C120.528 42.1575 119.95 41.2226 119.242 40.4909C118.571 39.7186 117.825 39.1089 117.005 38.6618C116.184 38.174 115.345 37.8488 114.488 37.6862C113.63 37.483 112.791 37.3813 111.971 37.3813C110.219 37.3813 108.69 37.7675 107.385 38.5398C106.08 39.3121 104.998 40.308 104.141 41.5275C103.283 42.7469 102.649 44.1289 102.239 45.6736C101.829 47.2182 101.624 48.7831 101.624 50.3684C101.624 52.0756 101.866 53.7219 102.351 55.3071C102.836 56.8924 103.526 58.2948 104.421 59.5142C105.353 60.7337 106.453 61.7092 107.72 62.4409C109.025 63.1319 110.48 63.4774 112.083 63.4774C112.903 63.4774 113.742 63.3758 114.6 63.1725C115.494 62.9287 116.333 62.5831 117.116 62.136C117.937 61.6482 118.682 61.0385 119.354 60.3069C120.025 59.5345 120.565 58.5996 120.976 57.5021L128.47 62.3189C127.873 63.9042 126.979 65.3269 125.785 66.587C124.63 67.8471 123.287 68.9039 121.759 69.7575C120.23 70.6111 118.608 71.2615 116.893 71.7086C115.178 72.1558 113.5 72.3793 111.859 72.3793C108.988 72.3793 106.341 71.7493 103.917 70.4892C101.531 69.1884 99.4615 67.4812 97.709 65.3675C95.9939 63.2538 94.6516 60.8556 93.6821 58.1728C92.75 55.4901 92.2839 52.7666 92.2839 50.0026Z" fill="white"/>
</svg>
