<svg width="225" height="99" viewBox="0 0 225 99" fill="none" xmlns="http://www.w3.org/2000/svg">
<path fill-rule="evenodd" clip-rule="evenodd" d="M25.9487 13.41H70.7944V85.8384H25.9487V13.41Z" fill="#038141"/>
<path fill-rule="evenodd" clip-rule="evenodd" d="M156.548 13.41H201.394V85.8384H156.548V13.41Z" fill="#E63E11"/>
<path fill-rule="evenodd" clip-rule="evenodd" d="M16.8239 13.41H28.0218C37.3422 13.41 44.8457 20.9134 44.8457 30.2339V69.0145C44.8457 78.3349 37.3422 85.8384 28.0218 85.8384H16.8239C7.50347 85.8384 0 78.3349 0 69.0145V30.2339C0 20.9134 7.50347 13.41 16.8239 13.41Z" fill="#038141"/>
<path fill-rule="evenodd" clip-rule="evenodd" d="M134.591 13.41H179.437V85.8384H134.591V13.41Z" fill="#EE8100"/>
<path d="M142.701 66.6826V33.8476H154.956C157.669 33.8476 160.043 34.2793 162.078 35.1425C164.113 36.0058 165.809 37.1774 167.165 38.6573C168.553 40.1371 169.585 41.8791 170.264 43.8831C170.973 45.8563 171.327 47.9682 171.327 50.2189C171.327 52.7162 170.942 54.9823 170.171 57.0171C169.4 59.0211 168.291 60.7476 166.842 62.1967C165.423 63.6149 163.697 64.7248 161.662 65.5264C159.658 66.2972 157.423 66.6826 154.956 66.6826H142.701ZM163.604 50.2189C163.604 48.7698 163.404 47.4595 163.003 46.2879C162.633 45.0855 162.078 44.0527 161.338 43.1894C160.598 42.3261 159.689 41.6633 158.61 41.2008C157.531 40.7383 156.313 40.5071 154.956 40.5071H150.285V60.0231H154.956C156.344 60.0231 157.577 59.7765 158.656 59.2832C159.735 58.7899 160.629 58.1116 161.338 57.2483C162.078 56.3542 162.633 55.3214 163.003 54.1498C163.404 52.9474 163.604 51.6371 163.604 50.2189Z" fill="white" fill-opacity="0.446064"/>
<path fill-rule="evenodd" clip-rule="evenodd" d="M87.3161 13.41H134.668V85.8384H87.3161V13.41Z" fill="#FECB02"/>
<path fill-rule="evenodd" clip-rule="evenodd" d="M89.6145 13.41H44.7688V85.8384H89.6145V13.41Z" fill="#85BB2F"/>
<path d="M92.5223 48.5696C92.5223 46.5964 92.8922 44.6386 93.6322 42.6963C94.3721 40.7231 95.4512 38.9657 96.8694 37.4242C98.2877 35.8826 100.014 34.634 102.049 33.6782C104.084 32.7225 106.396 32.2446 108.986 32.2446C112.069 32.2446 114.736 32.9074 116.987 34.2332C119.268 35.5589 120.964 37.2854 122.074 39.4128L116.247 43.4825C115.877 42.6192 115.399 41.9101 114.813 41.3551C114.258 40.7693 113.641 40.3069 112.963 39.9677C112.285 39.5978 111.591 39.3511 110.882 39.2278C110.173 39.0736 109.479 38.9966 108.801 38.9966C107.352 38.9966 106.088 39.2894 105.009 39.8752C103.93 40.461 103.036 41.2164 102.327 42.1413C101.617 43.0662 101.093 44.1145 100.754 45.2861C100.415 46.4576 100.245 47.6446 100.245 48.847C100.245 50.1419 100.446 51.3906 100.847 52.593C101.247 53.7954 101.818 54.8591 102.558 55.784C103.329 56.7089 104.238 57.4489 105.286 58.0038C106.365 58.528 107.568 58.79 108.894 58.79C109.572 58.79 110.265 58.713 110.975 58.5588C111.715 58.3738 112.408 58.1118 113.056 57.7726C113.734 57.4026 114.351 56.9402 114.906 56.3852C115.461 55.7994 115.908 55.0903 116.247 54.2579L122.444 57.9114C121.95 59.1138 121.21 60.1928 120.224 61.1486C119.268 62.1044 118.158 62.906 116.894 63.5534C115.63 64.2009 114.289 64.6942 112.871 65.0333C111.452 65.3724 110.065 65.542 108.709 65.542C106.335 65.542 104.146 65.0641 102.142 64.1084C100.168 63.1218 98.4572 61.8269 97.0082 60.2237C95.59 58.6205 94.48 56.8014 93.6784 54.7666C92.9077 52.7318 92.5223 50.6661 92.5223 48.5696Z" fill="white" fill-opacity="0.446064"/>
<path d="M83.1522 57.1252C83.1522 58.5434 82.8593 59.7766 82.2735 60.8249C81.6877 61.8731 80.8861 62.7518 79.8687 63.4609C78.8513 64.1392 77.6643 64.6633 76.3077 65.0333C74.9511 65.3724 73.5175 65.542 72.0068 65.542H56.0055V32.707H74.2729C75.4136 32.707 76.4464 32.9537 77.3714 33.447C78.2963 33.9403 79.0825 34.5877 79.7299 35.3893C80.3774 36.1601 80.8707 37.0542 81.2098 38.0716C81.5798 39.0582 81.7648 40.0756 81.7648 41.1239C81.7648 42.6963 81.364 44.1761 80.5624 45.5635C79.7916 46.9509 78.62 47.9992 77.0476 48.7083C78.9283 49.2633 80.4082 50.2498 81.4873 51.6681C82.5972 53.0863 83.1522 54.9053 83.1522 57.1252ZM75.429 55.599C75.429 54.5816 75.1361 53.7183 74.5503 53.0092C73.9645 52.3001 73.2246 51.9455 72.3305 51.9455H63.5899V59.1137H72.0068C72.9934 59.1137 73.8104 58.79 74.4578 58.1426C75.1053 57.4951 75.429 56.6473 75.429 55.599ZM63.5899 39.1815V45.9798H71.0356C71.868 45.9798 72.608 45.7023 73.2554 45.1473C73.9029 44.5924 74.2266 43.7291 74.2266 42.5575C74.2266 41.4784 73.9337 40.646 73.3479 40.0602C72.793 39.4744 72.1147 39.1815 71.3131 39.1815H63.5899Z" fill="white" fill-opacity="0.446064"/>
<path d="M16.536 32.707H23.3804L35.3583 65.542H27.5889L25.0453 58.1888H14.8248L12.3275 65.542H4.55814L16.536 32.707ZM23.7967 52.963L19.9582 41.3551L16.0272 52.963H23.7967Z" fill="white" fill-opacity="0.446064"/>
<path fill-rule="evenodd" clip-rule="evenodd" d="M196.184 13.41H207.382C216.702 13.41 224.206 20.9134 224.206 30.2339V69.0145C224.206 78.3349 216.702 85.8384 207.382 85.8384H196.184C186.864 85.8384 179.36 78.3349 179.36 69.0145V30.2339C179.36 20.9134 186.864 13.41 196.184 13.41Z" fill="#E63E11"/>
<path fill-rule="evenodd" clip-rule="evenodd" d="M154.585 4H159.443C172.871 4 183.681 14.8101 183.681 28.2378V70.7254C183.681 84.1531 172.871 94.9632 159.443 94.9632H154.585C141.157 94.9632 130.347 84.1531 130.347 70.7254V28.2378C130.347 14.8101 141.157 4 154.585 4Z" fill="#0039FF" fill-opacity="0.629738" stroke="white" stroke-width="7.53935" stroke-linecap="round" stroke-linejoin="round"/>
<path d="M216.417 58.8825V65.542H193.34V32.707H216.001V39.3665H200.925V45.7485H213.874V51.8993H200.925V58.8825H216.417Z" fill="white" fill-opacity="0.446064"/>
<path fill-rule="evenodd" clip-rule="evenodd" d="M154.585 4H159.443C172.871 4 183.681 14.8101 183.681 28.2378V70.7254C183.681 84.1531 172.871 94.9632 159.443 94.9632H154.585C141.157 94.9632 130.347 84.1531 130.347 70.7254V28.2378C130.347 14.8101 141.157 4 154.585 4Z" fill="#EE8100"/>
<path d="M139.704 72.0135V28.7233H154.525C157.806 28.7233 160.678 29.2924 163.138 30.4305C165.599 31.5687 167.65 33.1133 169.291 35.0644C170.968 37.0155 172.218 39.3121 173.038 41.9542C173.895 44.5557 174.324 47.3401 174.324 50.3074C174.324 53.5999 173.858 56.5875 172.926 59.2703C171.994 61.9124 170.652 64.1887 168.899 66.0992C167.184 67.969 165.096 69.4323 162.635 70.4892C160.212 71.5054 157.508 72.0135 154.525 72.0135H139.704ZM164.984 50.3074C164.984 48.397 164.742 46.6694 164.257 45.1248C163.81 43.5395 163.138 42.1778 162.244 41.0397C161.349 39.9015 160.249 39.0276 158.944 38.4179C157.639 37.8081 156.166 37.5033 154.525 37.5033H148.876V63.2335H154.525C156.203 63.2335 157.695 62.9083 159 62.2579C160.305 61.6076 161.386 60.7133 162.244 59.5752C163.138 58.3964 163.81 57.0347 164.257 55.49C164.742 53.9048 164.984 52.1772 164.984 50.3074Z" fill="white"/>
</svg>
