<svg width="230" height="99" viewBox="0 0 230 99" fill="none" xmlns="http://www.w3.org/2000/svg">
<path fill-rule="evenodd" clip-rule="evenodd" d="M25.9487 13.4099H70.7944V85.8384H25.9487V13.4099Z" fill="#038141"/>
<path fill-rule="evenodd" clip-rule="evenodd" d="M156.548 13.4099H201.394V85.8384H156.548V13.4099Z" fill="#E63E11"/>
<path fill-rule="evenodd" clip-rule="evenodd" d="M16.8239 13.4099H28.0218C37.3422 13.4099 44.8457 20.9134 44.8457 30.2339V69.0144C44.8457 78.3349 37.3422 85.8384 28.0218 85.8384H16.8239C7.50347 85.8384 0 78.3349 0 69.0144V30.2339C0 20.9134 7.50347 13.4099 16.8239 13.4099Z" fill="#038141"/>
<path fill-rule="evenodd" clip-rule="evenodd" d="M134.591 13.4099H179.437V85.8384H134.591V13.4099Z" fill="#EE8100"/>
<path d="M138.189 65.542V32.707H150.444C153.158 32.707 155.531 33.1386 157.566 34.0019C159.601 34.8652 161.297 36.0368 162.653 37.5166C164.041 38.9965 165.074 40.7385 165.752 42.7425C166.461 44.7157 166.816 46.8276 166.816 49.0782C166.816 51.5756 166.43 53.8416 165.659 55.8765C164.889 57.8805 163.779 59.607 162.33 61.0561C160.911 62.4743 159.185 63.5842 157.15 64.3858C155.146 65.1566 152.911 65.542 150.444 65.542H138.189ZM159.092 49.0782C159.092 47.6292 158.892 46.3189 158.491 45.1473C158.121 43.9449 157.566 42.912 156.826 42.0488C156.086 41.1855 155.177 40.5226 154.098 40.0602C153.019 39.5977 151.801 39.3665 150.444 39.3665H145.773V58.8825H150.444C151.832 58.8825 153.065 58.6358 154.144 58.1425C155.223 57.6493 156.117 56.971 156.826 56.1077C157.566 55.2136 158.121 54.1808 158.491 53.0092C158.892 51.8068 159.092 50.4965 159.092 49.0782Z" fill="white" fill-opacity="0.446064"/>
<path fill-rule="evenodd" clip-rule="evenodd" d="M87.3161 13.4099H134.668V85.8384H87.3161V13.4099Z" fill="#FECB02"/>
<path fill-rule="evenodd" clip-rule="evenodd" d="M89.6145 13.4099H44.7688V85.8384H89.6145V13.4099Z" fill="#85BB2F"/>
<path d="M96.0314 48.5695C96.0314 46.5964 96.4014 44.6386 97.1413 42.6962C97.8813 40.7231 98.9604 38.9657 100.379 37.4241C101.797 35.8826 103.523 34.6339 105.558 33.6782C107.593 32.7224 109.905 32.2445 112.495 32.2445C115.578 32.2445 118.245 32.9074 120.496 34.2331C122.777 35.5589 124.473 37.2854 125.583 39.4127L119.756 43.4824C119.386 42.6192 118.908 41.91 118.322 41.3551C117.767 40.7693 117.151 40.3068 116.472 39.9677C115.794 39.5977 115.1 39.3511 114.391 39.2277C113.682 39.0736 112.988 38.9965 112.31 38.9965C110.861 38.9965 109.597 39.2894 108.518 39.8752C107.439 40.461 106.545 41.2164 105.836 42.1413C105.127 43.0662 104.602 44.1145 104.263 45.286C103.924 46.4576 103.755 47.6446 103.755 48.847C103.755 50.1419 103.955 51.3906 104.356 52.593C104.757 53.7954 105.327 54.8591 106.067 55.784C106.838 56.7089 107.747 57.4489 108.795 58.0038C109.875 58.5279 111.077 58.79 112.403 58.79C113.081 58.79 113.775 58.7129 114.484 58.5588C115.224 58.3738 115.917 58.1117 116.565 57.7726C117.243 57.4026 117.86 56.9401 118.415 56.3852C118.97 55.7994 119.417 55.0903 119.756 54.2578L125.953 57.9113C125.46 59.1137 124.72 60.1928 123.733 61.1486C122.777 62.1043 121.667 62.9059 120.403 63.5534C119.139 64.2008 117.798 64.6941 116.38 65.0333C114.962 65.3724 113.574 65.542 112.218 65.542C109.844 65.542 107.655 65.0641 105.651 64.1083C103.678 63.1217 101.966 61.8268 100.517 60.2236C99.0991 58.6204 97.9892 56.8014 97.1876 54.7666C96.4168 52.7317 96.0314 50.666 96.0314 48.5695Z" fill="white" fill-opacity="0.446064"/>
<path d="M83.1522 57.1251C83.1522 58.5434 82.8593 59.7766 82.2735 60.8248C81.6877 61.8731 80.8861 62.7518 79.8687 63.4609C78.8513 64.1392 77.6643 64.6633 76.3077 65.0333C74.9511 65.3724 73.5175 65.542 72.0068 65.542H56.0055V32.707H74.2729C75.4136 32.707 76.4464 32.9536 77.3714 33.4469C78.2963 33.9402 79.0825 34.5877 79.7299 35.3893C80.3774 36.1601 80.8707 37.0542 81.2098 38.0716C81.5798 39.0582 81.7648 40.0756 81.7648 41.1239C81.7648 42.6962 81.364 44.1761 80.5624 45.5635C79.7916 46.9509 78.62 47.9992 77.0476 48.7083C78.9283 49.2632 80.4082 50.2498 81.4873 51.668C82.5972 53.0863 83.1522 54.9053 83.1522 57.1251ZM75.429 55.599C75.429 54.5816 75.1361 53.7183 74.5503 53.0092C73.9645 52.3001 73.2246 51.9455 72.3305 51.9455H63.5899V59.1137H72.0068C72.9934 59.1137 73.8104 58.79 74.4578 58.1425C75.1053 57.4951 75.429 56.6472 75.429 55.599ZM63.5899 39.1815V45.9797H71.0356C71.868 45.9797 72.608 45.7022 73.2554 45.1473C73.9029 44.5923 74.2266 43.7291 74.2266 42.5575C74.2266 41.4784 73.9337 40.646 73.3479 40.0602C72.793 39.4744 72.1147 39.1815 71.3131 39.1815H63.5899Z" fill="white" fill-opacity="0.446064"/>
<path fill-rule="evenodd" clip-rule="evenodd" d="M196.935 4H201.793C215.221 4 226.031 14.8101 226.031 28.2378V70.7254C226.031 84.1531 215.221 94.9632 201.793 94.9632H196.935C183.508 94.9632 172.698 84.1531 172.698 70.7254V28.2378C172.698 14.8101 183.508 4 196.935 4Z" fill="#0039FF" fill-opacity="0.629738" stroke="white" stroke-width="7.53935" stroke-linecap="round" stroke-linejoin="round"/>
<path d="M16.536 32.707H23.3804L35.3583 65.542H27.5889L25.0453 58.1888H14.8248L12.3275 65.542H4.55814L16.536 32.707ZM23.7967 52.9629L19.9582 41.3551L16.0272 52.9629H23.7967Z" fill="white" fill-opacity="0.446064"/>
<path fill-rule="evenodd" clip-rule="evenodd" d="M196.184 13.4099H207.382C216.702 13.4099 224.206 20.9134 224.206 30.2339V69.0144C224.206 78.3349 216.702 85.8384 207.382 85.8384H196.184C186.864 85.8384 179.36 78.3349 179.36 69.0144V30.2339C179.36 20.9134 186.864 13.4099 196.184 13.4099Z" fill="#E63E11"/>
<path d="M210.903 58.8825V65.542H187.826V32.707H210.487V39.3665H195.41V45.7485H208.359V51.8993H195.41V58.8825H210.903Z" fill="white" fill-opacity="0.446064"/>
<path fill-rule="evenodd" clip-rule="evenodd" d="M196.935 4H201.793C215.221 4 226.031 14.8101 226.031 28.2378V70.7254C226.031 84.1531 215.221 94.9632 201.793 94.9632H196.935C183.508 94.9632 172.698 84.1531 172.698 70.7254V28.2378C172.698 14.8101 183.508 4 196.935 4Z" fill="#E63E11"/>
<path d="M210.858 63.2335V72.0135H182.949V28.7233H210.355V37.5033H192.122V45.9174H207.782V54.0267H192.122V63.2335H210.858Z" fill="white"/>
</svg>
