<svg width="96" height="96" viewBox="0 0 96 96" fill="none" xmlns="http://www.w3.org/2000/svg">
<path d="M28.979 88C26.993 88 25.3 87.293 23.9 85.879C22.5 84.465 21.8 82.765 21.8 80.779C21.8 78.793 22.507 77.1 23.921 75.7C25.335 74.3 27.035 73.6 29.021 73.6C31.007 73.6 32.7 74.307 34.1 75.721C35.5 77.135 36.2 78.835 36.2 80.821C36.2 82.807 35.493 84.5 34.079 85.9C32.665 87.3 30.965 88 28.979 88ZM69.379 88C67.393 88 65.7 87.293 64.3 85.879C62.9 84.465 62.2 82.765 62.2 80.779C62.2 78.793 62.907 77.1 64.321 75.7C65.735 74.3 67.435 73.6 69.421 73.6C71.407 73.6 73.1 74.307 74.5 75.721C75.9 77.135 76.6 78.835 76.6 80.821C76.6 82.807 75.893 84.5 74.479 85.9C73.065 87.3 71.365 88 69.379 88ZM14 14H9.20001C8.35001 14 7.63768 13.7107 7.06301 13.132C6.48768 12.554 6.20001 11.8373 6.20001 10.982C6.20001 10.1273 6.48768 9.41667 7.06301 8.85C7.63768 8.28333 8.35001 8 9.20001 8H15.9C16.5 8 17.04 8.14767 17.52 8.443C18 8.739 18.36 9.158 18.6 9.7L34.8 44.4H63.6L78.8 17.9C79.0667 17.4333 79.425 17.0667 79.875 16.8C80.325 16.5333 80.825 16.4 81.375 16.4C82.525 16.4 83.3833 16.8667 83.95 17.8C84.5167 18.7333 84.5333 19.7 84 20.7L70.1 46.7C69.3667 47.9667 68.4147 48.9833 67.244 49.75C66.0733 50.5167 64.792 50.9 63.4 50.9H33.1L27.5 61.3H73.6C74.45 61.3 75.1627 61.5893 75.738 62.168C76.3127 62.746 76.6 63.4627 76.6 64.318C76.6 65.1727 76.3127 65.8833 75.738 66.45C75.1627 67.0167 74.45 67.3 73.6 67.3H28.4C25.8893 67.3 23.9783 66.3 22.667 64.3C21.3557 62.3 21.2667 60.2667 22.4 58.2L28.8 46.4L14 14ZM51.2 27H36C35.15 27 34.4377 26.7107 33.863 26.132C33.2877 25.554 33 24.8373 33 23.982C33 23.1273 33.2877 22.4167 33.863 21.85C34.4377 21.2833 35.15 21 36 21H51.2L45.9 15.7C45.3 15.1 45 14.4 45 13.6C45 12.8 45.3 12.087 45.9 11.461C46.5 10.887 47.2 10.6 48 10.6C48.8 10.6 49.5 10.9 50.1 11.5L60.5 21.9C61.1 22.5 61.4 23.2 61.4 24C61.4 24.8 61.1 25.5 60.5 26.1L50.1 36.5C49.5 37.1 48.8 37.4 48 37.4C47.2 37.4 46.5 37.1 45.9 36.5C45.3 35.9 45 35.2 45 34.4C45 33.6 45.3 32.9 45.9 32.3L51.2 27Z" fill="white"/>
</svg>
