<svg width="64" height="64" viewBox="0 0 64 64" fill="none" xmlns="http://www.w3.org/2000/svg">
<path d="M5.46664 5.4668H10.8L17.8933 38.5868C18.1535 39.7998 18.8284 40.8841 19.8019 41.6531C20.7753 42.4221 21.9864 42.8277 23.2266 42.8001H49.3066C50.5204 42.7982 51.6973 42.3822 52.6427 41.621C53.5882 40.8598 54.2457 39.7989 54.5066 38.6135L58.9066 18.8001H13.6533M24 56.0001C24 57.4729 22.8061 58.6668 21.3333 58.6668C19.8605 58.6668 18.6666 57.4729 18.6666 56.0001C18.6666 54.5274 19.8605 53.3335 21.3333 53.3335C22.8061 53.3335 24 54.5274 24 56.0001ZM53.3333 56.0001C53.3333 57.4729 52.1394 58.6668 50.6666 58.6668C49.1939 58.6668 48 57.4729 48 56.0001C48 54.5274 49.1939 53.3335 50.6666 53.3335C52.1394 53.3335 53.3333 54.5274 53.3333 56.0001Z" stroke="black" stroke-width="5.33333" stroke-linecap="round" stroke-linejoin="round"/>
<path d="M5 59L59 5" stroke="black" stroke-width="5.33" stroke-linecap="round"/>
</svg>
